<svg xmlns="http://www.w3.org/2000/svg" width="760" height="356" viewBox="0 0 760 356" font-family="system-ui,'Segoe UI',sans-serif" role="img" aria-label="VideoSense eval dashboard: 78% pass on the real-Gemini lane over 96 single-turn tasks, part of a 128-task suite scored by deterministic verifiers. Per-dimension: timestamp 100%, counting 95%, tool-use 80%, retrieval 58%, honesty 52%."><defs><linearGradient id="ebg" x1="0" y1="0" x2="0" y2="1"><stop offset="0" stop-color="#0d1016"/><stop offset="1" stop-color="#090b0f"/></linearGradient></defs><rect x="1" y="1" width="758" height="354" rx="14" fill="url(#ebg)" stroke="#22262d"/><rect x="1" y="1" width="758" height="42" rx="14" fill="#0c0e12"/><rect x="1" y="30" width="758" height="13" fill="#0c0e12"/><circle cx="26" cy="22" r="6" fill="#e05a5a"/><circle cx="46" cy="22" r="6" fill="#e0a23b"/><circle cx="66" cy="22" r="6" fill="#43c88a"/><text x="92" y="26.5" fill="#69727e" font-size="12.5">VS eval dashboard · τ²-bench-style · local</text><text x="734" y="26.5" fill="#69727e" font-size="11.5" text-anchor="end" font-family="ui-monospace,'SF Mono',SFMono-Regular,Menlo,Consolas,monospace">python -m evals view</text><line x1="1" y1="43" x2="759" y2="43" stroke="#22262d"/><text x="44" y="112" fill="#6ea2ff" font-size="52" font-weight="800" font-family="ui-monospace,'SF Mono',SFMono-Regular,Menlo,Consolas,monospace">78%</text><text x="150" y="88" fill="#98a2ae" font-size="13">pass · real-Gemini lane</text><text x="150" y="108" fill="#e8ebef" font-size="13.5" font-weight="600">96 single-turn tasks · round-2 baseline</text><text x="150" y="128" fill="#69727e" font-size="12">deterministic verifiers — no LLM judge</text><rect x="556" y="72" width="176" height="52" rx="10" fill="#101822" stroke="#2c313a"/><text x="644" y="94" fill="#e8ebef" font-size="15" font-weight="700" text-anchor="middle">128-task suite</text><text x="644" y="112" fill="#69727e" font-size="11" text-anchor="middle">8 capability dimensions</text><line x1="44" y1="150" x2="716" y2="150" stroke="#22262d"/><text x="44" y="174" fill="#69727e" font-size="11" letter-spacing=".1em">PER-DIMENSION · PASS RATE</text><text x="44" y="198" fill="#cdd3da" font-size="12.5">timestamp grounding</text><rect x="250" y="188" width="300" height="10" rx="5" fill="#151b26"/><rect x="250" y="188" width="300" height="10" rx="5" fill="#6ea2ff"/><text x="564" y="198" fill="#e8ebef" font-size="12" font-family="ui-monospace,'SF Mono',SFMono-Regular,Menlo,Consolas,monospace">100%</text><text x="608" y="198" fill="#69727e" font-size="11" font-family="ui-monospace,'SF Mono',SFMono-Regular,Menlo,Consolas,monospace">14/14</text><text x="44" y="224" fill="#cdd3da" font-size="12.5">counting / dedup</text><rect x="250" y="214" width="300" height="10" rx="5" fill="#151b26"/><rect x="250" y="214" width="285" height="10" rx="5" fill="#6ea2ff"/><text x="564" y="224" fill="#e8ebef" font-size="12" font-family="ui-monospace,'SF Mono',SFMono-Regular,Menlo,Consolas,monospace">95%</text><text x="608" y="224" fill="#69727e" font-size="11" font-family="ui-monospace,'SF Mono',SFMono-Regular,Menlo,Consolas,monospace">18/19</text><text x="44" y="250" fill="#cdd3da" font-size="12.5">right tool used</text><rect x="250" y="240" width="300" height="10" rx="5" fill="#151b26"/><rect x="250" y="240" width="240" height="10" rx="5" fill="#6ea2ff"/><text x="564" y="250" fill="#e8ebef" font-size="12" font-family="ui-monospace,'SF Mono',SFMono-Regular,Menlo,Consolas,monospace">80%</text><text x="608" y="250" fill="#69727e" font-size="11" font-family="ui-monospace,'SF Mono',SFMono-Regular,Menlo,Consolas,monospace">16/20</text><text x="44" y="276" fill="#cdd3da" font-size="12.5">retrieval</text><rect x="250" y="266" width="300" height="10" rx="5" fill="#151b26"/><rect x="250" y="266" width="174" height="10" rx="5" fill="#5a76a8"/><text x="564" y="276" fill="#e8ebef" font-size="12" font-family="ui-monospace,'SF Mono',SFMono-Regular,Menlo,Consolas,monospace">58%</text><text x="608" y="276" fill="#69727e" font-size="11" font-family="ui-monospace,'SF Mono',SFMono-Regular,Menlo,Consolas,monospace">14/24</text><text x="44" y="302" fill="#cdd3da" font-size="12.5">honesty / no fabrication</text><rect x="250" y="292" width="300" height="10" rx="5" fill="#151b26"/><rect x="250" y="292" width="156" height="10" rx="5" fill="#5a76a8"/><text x="564" y="302" fill="#e8ebef" font-size="12" font-family="ui-monospace,'SF Mono',SFMono-Regular,Menlo,Consolas,monospace">52%</text><text x="608" y="302" fill="#69727e" font-size="11" font-family="ui-monospace,'SF Mono',SFMono-Regular,Menlo,Consolas,monospace">13/25</text><line x1="44" y1="330" x2="716" y2="330" stroke="#22262d"/><text x="44" y="348" fill="#98a2ae" font-size="11.5">the eval caught real bugs on day one — a prompt-injection leak, an identity slip — now pinned as regression tasks</text></svg>