<svg xmlns="http://www.w3.org/2000/svg" viewBox="0 0 1200 320" role="img" aria-label="VideoSense — ask your video library anything; it answers with proof">
  <defs>
    <linearGradient id="acc" x1="0" y1="0" x2="1" y2="1">
      <stop offset="0" stop-color="#3f7bf0"/>
      <stop offset="1" stop-color="#6ea2ff"/>
    </linearGradient>
    <radialGradient id="glow" cx=".5" cy="0" r="1">
      <stop offset="0" stop-color="#3f7bf0" stop-opacity=".28"/>
      <stop offset=".65" stop-color="#3f7bf0" stop-opacity="0"/>
    </radialGradient>
    <pattern id="dots" width="26" height="26" patternUnits="userSpaceOnUse">
      <circle cx="1.5" cy="1.5" r="1.2" fill="#ffffff" opacity=".05"/>
    </pattern>
    <clipPath id="frame"><rect width="1200" height="320" rx="18"/></clipPath>
  </defs>

  <g clip-path="url(#frame)">
    <rect width="1200" height="320" fill="#0b1526"/>
    <rect width="1200" height="320" fill="url(#dots)"/>
    <ellipse cx="600" cy="-40" rx="700" ry="260" fill="url(#glow)"/>

    <!-- wordmark -->
    <g transform="translate(72,0)">
      <g transform="translate(0,80)">
        <rect width="40" height="40" rx="12" fill="url(#acc)"/>
        <path d="M16 12 L30 20 L16 28 Z" fill="#0b1526"/>
      </g>
      <text x="54" y="108" font-family="system-ui,-apple-system,'Segoe UI',Roboto,sans-serif" font-size="34" font-weight="700" fill="#e8ebef">VideoSense</text>
      <rect x="256" y="83" width="128" height="26" rx="13" fill="none" stroke="#6ea2ff" stroke-opacity=".5"/>
      <text x="320" y="100" text-anchor="middle" font-family="ui-monospace,'Cascadia Code',Consolas,monospace" font-size="11" font-weight="600" letter-spacing="1.5" fill="#6ea2ff">AI VIDEO AGENT</text>

      <text x="0" y="186" font-family="system-ui,-apple-system,'Segoe UI',Roboto,sans-serif" font-size="42" font-weight="800" fill="#e8ebef">Ask your video library anything.</text>
      <text x="0" y="238" font-family="system-ui,-apple-system,'Segoe UI',Roboto,sans-serif" font-size="42" font-weight="800" fill="url(#acc)">It answers — with proof.</text>
    </g>

    <!-- decorative mini chat: you ask → it answers with a playable clip + chart -->
    <g transform="translate(788,42)" font-family="ui-monospace,'Cascadia Code',Consolas,monospace">
      <rect x="0" y="0" width="340" height="236" rx="14" fill="#ffffff" fill-opacity=".04" stroke="#ffffff" stroke-opacity=".09"/>

      <text x="22" y="32" font-size="10" letter-spacing="1.8" fill="#98a2ae">YOU ASK</text>
      <rect x="96" y="44" width="222" height="30" rx="15" fill="url(#acc)" opacity=".9"/>
      <text x="207" y="63" text-anchor="middle" font-size="12" font-weight="600" fill="#0b1526">show me the shortest clip</text>

      <text x="22" y="106" font-size="10" letter-spacing="1.8" fill="#98a2ae">IT ANSWERS</text>
      <g transform="translate(22,118)">
        <rect width="128" height="82" rx="10" fill="#12203a" stroke="#ffffff" stroke-opacity=".12"/>
        <circle cx="64" cy="38" r="16" fill="none" stroke="#e8ebef" stroke-opacity=".8" stroke-width="1.6"/>
        <path d="M59 31 L72 38 L59 45 Z" fill="#e8ebef"/>
        <rect x="78" y="60" width="42" height="16" rx="8" fill="#0b1526" opacity=".85"/>
        <text x="99" y="71" text-anchor="middle" font-size="9" fill="#6ea2ff">0:31</text>
      </g>
      <g transform="translate(170,118)">
        <rect width="148" height="82" rx="10" fill="#12203a" stroke="#ffffff" stroke-opacity=".12"/>
        <rect x="16" y="50" width="14" height="18" rx="2" fill="#3f7bf0" opacity=".85"/>
        <rect x="38" y="38" width="14" height="30" rx="2" fill="#3f7bf0"/>
        <rect x="60" y="26" width="14" height="42" rx="2" fill="url(#acc)"/>
        <rect x="82" y="44" width="14" height="24" rx="2" fill="#6ea2ff" opacity=".85"/>
        <rect x="104" y="32" width="14" height="36" rx="2" fill="#6ea2ff"/>
      </g>
      <text x="22" y="222" font-size="10" fill="#98a2ae">answer + playable clip + chart <tspan fill="#43c88a">&#10003;</tspan></text>
    </g>
  </g>

  <rect x=".5" y=".5" width="1199" height="319" rx="18" fill="none" stroke="url(#acc)" stroke-opacity=".35"/>
</svg>
